<svg width="49" height="49" viewBox="0 0 49 49" fill="none" xmlns="http://www.w3.org/2000/svg">
<path d="M21 21V3.5C21 2.56936 21 2.10404 21.1224 1.72746C21.3697 0.966363 21.9664 0.369654 22.7275 0.122359C23.104 4.193e-07 23.5694 4.193e-07 24.5 4.193e-07C25.4306 4.193e-07 25.896 4.193e-07 26.2725 0.122359C27.0336 0.369654 27.6303 0.966363 27.8776 1.72746C28 2.10404 28 2.56936 28 3.5V21L45.5 21C46.4306 21 46.896 21 47.2725 21.1224C48.0336 21.3697 48.6303 21.9664 48.8776 22.7275C49 23.104 49 23.5694 49 24.5C49 25.4306 49 25.896 48.8776 26.2725C48.6303 27.0336 48.0336 27.6303 47.2725 27.8776C46.896 28 46.4306 28 45.5 28L28 28L28 45.5C28 46.4306 28 46.896 27.8776 47.2725C27.6303 48.0336 27.0336 48.6303 26.2725 48.8776C25.896 49 25.4306 49 24.5 49C23.5694 49 23.104 49 22.7275 48.8776C21.9664 48.6303 21.3697 48.0336 21.1224 47.2725C21 46.896 21 46.4306 21 45.5L21 28H3.5C2.56936 28 2.10404 28 1.72746 27.8776C0.966362 27.6303 0.369653 27.0336 0.122358 26.2725C-3.55561e-07 25.896 -3.55561e-07 25.4306 -3.55561e-07 24.5C-3.55561e-07 23.5694 -3.55561e-07 23.104 0.122358 22.7275C0.369653 21.9664 0.966362 21.3697 1.72746 21.1224C2.10404 21 2.56936 21 3.5 21H21Z" fill="#AABED2"/>
</svg>
