<svg width="49" height="49" viewBox="0 0 49 49" fill="none" xmlns="http://www.w3.org/2000/svg">
<path d="M19.5503 24.5L7.17588 12.1256C6.51782 11.4676 6.18879 11.1385 6.00903 10.7857C5.64572 10.0727 5.64572 9.22882 6.00903 8.51578C6.18879 8.16298 6.51782 7.83395 7.17588 7.17588C7.83395 6.51782 8.16298 6.18879 8.51578 6.00903C9.22882 5.64572 10.0727 5.64572 10.7857 6.00903C11.1385 6.18879 11.4676 6.51782 12.1256 7.17588L24.5 19.5503L36.8744 7.17588C37.5324 6.51782 37.8615 6.18879 38.2143 6.00903C38.9273 5.64572 39.7712 5.64571 40.4842 6.00903C40.837 6.18879 41.1661 6.51782 41.8241 7.17588C42.4822 7.83395 42.8112 8.16298 42.991 8.51578C43.3543 9.22882 43.3543 10.0727 42.991 10.7857C42.8112 11.1385 42.4822 11.4676 41.8241 12.1256L29.4497 24.5L41.8241 36.8744C42.4822 37.5324 42.8112 37.8615 42.991 38.2143C43.3543 38.9273 43.3543 39.7712 42.991 40.4842C42.8112 40.837 42.4822 41.1661 41.8241 41.8241C41.1661 42.4822 40.837 42.8112 40.4842 42.991C39.7712 43.3543 38.9273 43.3543 38.2143 42.991C37.8615 42.8112 37.5324 42.4822 36.8744 41.8241L24.5 29.4497L12.1256 41.8241C11.4676 42.4822 11.1385 42.8112 10.7857 42.991C10.0727 43.3543 9.22882 43.3543 8.51578 42.991C8.16298 42.8112 7.83395 42.4822 7.17588 41.8241C6.51782 41.1661 6.18879 40.837 6.00903 40.4842C5.64572 39.7712 5.64572 38.9273 6.00903 38.2143C6.18879 37.8615 6.51782 37.5324 7.17588 36.8744L19.5503 24.5Z" fill="#9FBAD8"/>
</svg>
